<svg version="1.1" xmlns="http://www.w3.org/2000/svg" xmlns:xlink="http://www.w3.org/1999/xlink" width="48" height="48"><defs><linearGradient x1="11.67152" y1="11.67152" x2="60.7741" y2="60.7741" gradientUnits="userSpaceOnUse" id="color-1"><stop offset="0" stop-color="#000000" stop-opacity="0.12"></stop><stop offset="1" stop-color="#000000" stop-opacity="0"></stop></linearGradient><linearGradient x1="33.625" y1="14.375" x2="43" y2="23.75" gradientUnits="userSpaceOnUse" id="color-2"><stop offset="0" stop-color="#000000" stop-opacity="0.12"></stop><stop offset="1" stop-color="#000000" stop-opacity="0"></stop></linearGradient><filter id="dropshadow-base"><feColorMatrix type="matrix" values="0 0 0 0 0  0 0 0 0 0  0 0 0 0 0  0 0 0 .8 0"></feColorMatrix> <feOffset dx="0" dy="1"></feOffset> <feGaussianBlur stdDeviation="1"></feGaussianBlur> <feComposite in="SourceGraphic"></feComposite></filter><filter id="dropshadow-banner" x="-10%" y="-10%" width="120%" height="130%"><feColorMatrix type="matrix" values="0 0 0 0 0  0 0 0 0 0  0 0 0 0 0  0 0 0 .4 0"></feColorMatrix> <feOffset dx="0" dy="1"></feOffset> <feGaussianBlur stdDeviation="0.5"></feGaussianBlur> <feComposite in="SourceGraphic"></feComposite></filter></defs><g fill="none" fill-rule="nonzero" stroke="none" stroke-width="none" stroke-linecap="butt" stroke-linejoin="miter" stroke-miterlimit="10" stroke-dasharray="" stroke-dashoffset="0" font-family="none" font-weight="none" font-size="none" text-anchor="none" style="mix-blend-mode: normal"><path d="M7,43c-1.10457,0 -2,-0.89543 -2,-2v-34c0,-1.10457 0.89543,-2 2,-2l26,0l10,10v26c0,1.10457 -0.89543,2 -2,2z" id="base 1 9 1 1 1 1 1 1 2" fill="#b9f6ca" stroke-width="1"></path><path d="M12.47372,35.52628c-0.49571,-0.49571 -0.80221,-1.18062 -0.80221,-1.93745v-19.17764c0,-1.51367 1.22599,-2.73966 2.73966,-2.73966h19.17764c0.75683,0 1.44175,0.3065 1.93745,0.80221l7.47372,7.47372v21.05255c0,1.10457 -0.89543,2 -2,2h-21.05255z" fill="url(#color-1)" stroke-width="1"></path><path d="M33.58882,11.67152h-19.17764c-1.51366,0 -2.73966,1.226 -2.73966,2.73966v19.17764c0,1.51366 1.226,2.73966 2.73966,2.73966h19.17764c1.51366,0 2.73966,-1.226 2.73966,-2.73966v-19.17764c0,-1.51366 -1.226,-2.73966 -2.73966,-2.73966zM19.89051,30.84916h-2.73966v-9.58882h2.73966zM25.36983,30.84916h-2.73966v-13.69831h2.73966zM30.84916,30.84916h-2.73966v-5.47933h2.73966z" fill="none" stroke-width="0"></path><path d="M36.32848,14.41118v19.17764c0,1.51366 -1.226,2.73966 -2.73966,2.73966h-19.17764c-1.51366,0 -2.73966,-1.226 -2.73966,-2.73966v-19.17764c0,-1.51366 1.226,-2.73966 2.73966,-2.73966h19.17764c1.51366,0 2.73966,1.226 2.73966,2.73966zM19.89051,21.26034h-2.73966v9.58882h2.73966zM25.36983,17.15084h-2.73966v13.69831h2.73966zM30.84916,25.36983h-2.73966v5.47933h2.73966z" fill="#ffffff" stroke-width="0"></path><path d="M2,24c0,-12.15026 9.84974,-22 22,-22c12.15026,0 22,9.84974 22,22c0,12.15026 -9.84974,22 -22,22c-12.15026,0 -22,-9.84974 -22,-22z" id="base 1 5 1" fill="none" stroke-width="1"></path><path d="M2,24c0,-12.15026 9.84974,-22 22,-22c12.15026,0 22,9.84974 22,22c0,12.15026 -9.84974,22 -22,22c-12.15026,0 -22,-9.84974 -22,-22z" id="base 1 1 1" fill="none" stroke-width="1"></path><g fill="#000000" stroke-width="1" font-family="Roboto, sans-serif" font-weight="normal" font-size="14" text-anchor="start"></g><rect x="2" y="2" width="44" height="22" fill="none" stroke-width="1"></rect><path d="M2,24v-22h44v22z" fill="none" stroke-width="1"></path><path d="M2,24v-22h44v22z" fill="none" stroke-width="1"></path><path d="M2,24v-22h44v22z" fill="none" stroke-width="1"></path><path d="M2,24v-22h44v22z" fill="none" stroke-width="1"></path><g fill="#000000" stroke-width="1" font-family="Roboto, sans-serif" font-weight="normal" font-size="14" text-anchor="start"></g><rect x="2" y="2" width="44" height="22" fill="none" stroke-width="1"></rect><path d="M2,24v-22h44v22z" fill="none" stroke-width="1"></path><path d="M2,24v-22h44v22z" fill="none" stroke-width="1"></path><path d="M2,24v-22h44v22z" fill="none" stroke-width="1"></path><path d="M2,24v-22h44v22z" fill="none" stroke-width="1"></path><path d="M33.625,14.375l9.375,0.625v8.75z" fill="url(#color-2)" stroke-width="1"></path><path d="M33,5l10,10h-8c-1,0 -2,-1 -2,-2z" fill="#d7ffe8" stroke-width="1"></path></g></svg>